Silent Hill Revelation 3D 2012 TS Xvid UnKnOwN

Encoded By .......:UnKnOwN
Runtime ..........:1:26
IMDb URL ........:http://www.imdb.com/title/tt0938330/
Language .........:English
File Size ........:698mb
Release Date ......... 2012
Source ......... Russian/Your sister
File Type ......... Single AVI
PS3 Compatible ....... Fuck your PS3
Genre ......... Thriller/Horror

Video
ID: 0
Format: MPEG-4 Visual
Format profile: Advanced Simple@L5
Format settings, BVOP: Yes
Format settings, QPel: No
Format settings, GMC: No warppoints
Format settings, Matrix: Custom
Codec ID: XVID
Codec ID/Hint: XviD
Duration: 1h 26mn
Bit rate: 1081kbps
Width: 640pixels
Height: 272pixels
Display aspect ratio: 2:35
Frame rate: 25.000fps
Color space: YUV
Chroma subsampling: 4:2:0
Bit depth: 8 bits
Scan type: Progressive
Bits/(Pixel*Frame): 0.234
Stream size: 892 MiB (86%)
Writing library: XviD 1.2.1 (UTC 2008-12-04)

Audio
ID: 1
Format: AC3
Format/Info: MPEG
Mode extension: CM (complete main)
Codec ID: 2000
Duration: 1h 26mn
Bit rate mode: Constant
Bit rate: 192kbps
Channel(s): 2channels
Channel positions: Front: L R
Sampling rate: 48.0 KHz
Bit depth: 16 bits
Stream size: 302 MiB
Alignment: Aligned on interleaves
Interleave, duration: 42 ms (1.00 video frame)
Interleave, preload duration: 512 ms

SYNOPSIS
When her father disappears, Heather Mason is drawn into a strange and
terrifying alternate reality that holds answers to the horrific nightmares
that have plagued her since childhood

RELEASE INFO
Reached deep in your sister goodie bag and got some nice line
Yes it's a 3d cam,yes it's a dark movie,yes you can complain
no we don't give a fuck(:

Small file size,One for the cam lovers 2 samples included normal and dark
Happy Halloween bitches enjoy or go see it at the cinemas

LOOKING FOR

Internet love tell your girl to hook it up with a cam show

GREETZ & RESPECT

NOBODY YET WILL LET YOU KNOW

MORE GOODIES COMING REAL SOON
 
http://www.shotpix.com/images/31655123325494955454.png 
http://www.shotpix.com/images/86132342150335552851.png 
http://www.shotpix.com/images/81882560932211051787.png 
http://www.shotpix.com/images/61628962027512405871.png
